<?xml version="1.0" standalone="no"?>
<!DOCTYPE svg PUBLIC "-//W3C//DTD SVG 1.1//EN" "http://www.w3.org/Graphics/SVG/1.1/DTD/svg11.dtd" >
<svg xmlns="http://www.w3.org/2000/svg" xmlns:xlink="http://www.w3.org/1999/xlink" version="1.1">
<metadata>
Created by FontForge 20201107 at Sat Feb 23 05:00:52 2019
 By Jimmy Wärting
Goma Shin
</metadata>
<defs>
<font id="toy-block-maestro" horiz-adv-x="512" >
  <font-face 
    font-family="Toy Block Maestro"
    font-weight="400"
    font-stretch="normal"
    units-per-em="1024"
    panose-1="2 11 6 0 0 0 0 0 0 0"
    ascent="880"
    descent="-144"
    x-height="742"
    cap-height="742"
    bbox="-46 -228.026 980 1008"
    underline-thickness="48"
    underline-position="-168"
    unicode-range="U+0020-2219"
  />
<missing-glyph 
d="M201 313v110h110v-110h-110z" />
    <glyph glyph-name=".notdef" 
d="M201 313v110h110v-110h-110z" />
    <glyph glyph-name="glyph1" horiz-adv-x="0" 
 />
    <glyph glyph-name="nonmarkingreturn" horiz-adv-x="341" 
 />
    <glyph glyph-name="space" unicode=" " horiz-adv-x="289" 
 />
    <glyph glyph-name="exclam" unicode="!" horiz-adv-x="484" 
d="M350 248q38 0 38 -36v-176q0 -36 -38 -36h-212q-38 0 -38 36v176q0 36 38 36h212zM176 310q-15 1 -22 5l-66 103q-13 21 -18 48l-6 238q0 38 38 38h280q38 0 38 -38l-6 -238q-5 -27 -18 -48l-66 -103q-7 -4 -22 -5h-132z" />
    <glyph glyph-name="quotedbl" unicode="&#x22;" horiz-adv-x="426" 
d="M276 494q-38 0 -38 36v268q0 36 38 36h74q38 0 38 -36v-268q0 -36 -38 -36h-74zM76 494q-38 0 -38 36v268q0 36 38 36h74q38 0 38 -36v-268q0 -36 -38 -36h-74z" />
    <glyph glyph-name="numbersign" unicode="#" horiz-adv-x="1004" 
d="M112 9q-38 2 -36 38l19 79h-25q-38 0 -38 36v98q0 36 38 36h66l35 144h-43q-38 0 -38 36v98q0 36 38 36h85l24 100q2 36 40 34l211 -11q38 -2 37 -38l-21 -85h106l23 94q2 36 40 34l211 -11q38 -2 37 -38l-19 -79h32q38 0 38 -36v-98q0 -36 -38 -36h-74l-35 -144h51
q38 0 38 -36v-98q0 -36 -38 -36h-93l-24 -100q-5 -37 -40 -34l-211 11q-38 2 -36 38l21 85h-107l-23 -94q-5 -37 -40 -34zM428 296h106l35 144h-106z" />
    <glyph glyph-name="dollar" unicode="$" horiz-adv-x="628" 
d="M46 466v238q0 38 38 38h143v51q0 38 36 38h98q36 0 36 -38v-60q30 -15 49 -55v28q3 38 38 36h60q35 2 38 -36v-246q-3 -38 -38 -36h-60q-35 -2 -38 36v34h-230l334 -172q25 -12 32 -46v-238q0 -38 -38 -38h-147v-49q0 -38 -36 -38h-98q-36 0 -36 38v60q-27 16 -45 53v-28
q-3 -38 -38 -36h-60q-35 -2 -38 36v246q3 38 38 36h60q35 2 38 -36v-34h230l-334 172q-25 12 -32 46z" />
    <glyph glyph-name="percent" unicode="%" horiz-adv-x="702" 
d="M244 742q38 0 38 -36v-212q0 -36 -38 -36h-160q-38 0 -38 36v212q0 36 38 36h160zM186 656h-43q-10 0 -10 -9v-94q0 -9 10 -9h43q9 0 9 9v94q0 9 -9 9zM292 0h-208q-38 0 -38 36v176q0 36 38 36h144l140 462q7 26 42 32h208q38 0 38 -36v-176q0 -36 -38 -36h-144
l-140 -462q-7 -26 -42 -32zM618 284q38 0 38 -36v-212q0 -36 -38 -36h-160q-38 0 -38 36v212q0 36 38 36h160zM560 198h-43q-10 0 -10 -9v-94q0 -9 10 -9h43q9 0 9 9v94q0 9 -9 9z" />
    <glyph glyph-name="ampersand" unicode="&#x26;" horiz-adv-x="661" 
d="M435 494h-232v-34l186 -62zM501 36q-12 -31 -37 -36h-379q-38 0 -38 36v161q-1 19 86 181l-33 14q-27 8 -36 48v266q-1 36 37 36h430q38 0 39 -38v-186q0 -18 -71 -156l23 -8l13 24q16 19 39 12l48 -16q21 -9 14 -34l-11 -23q22 -10 21 -41l-14 -40q-11 -16 -40 -10
l-10 4zM238 344l-51 -104h278l11 25z" />
    <glyph glyph-name="quotesingle" unicode="'" horiz-adv-x="336" 
d="M260 834q38 0 38 -36v-160q0 -18 -16 -28l-88 -106q-14 -9 -36 -10h-82q-38 0 -38 36v268q0 36 38 36h184z" />
    <glyph glyph-name="parenleft" unicode="(" horiz-adv-x="316" 
d="M40 766q1 37 40 40h160q38 0 38 -36v-176q0 -36 -38 -36h-32v-370h32q38 0 38 -36v-176q0 -36 -38 -36h-160q-39 3 -40 40v786z" />
    <glyph glyph-name="parenright" unicode=")" horiz-adv-x="316" 
d="M276 766v-786q-1 -37 -40 -40h-160q-38 0 -38 36v176q0 36 38 36h32v370h-32q-38 0 -38 36v176q0 36 38 36h160q39 -3 40 -40z" />
    <glyph glyph-name="asterisk" unicode="*" horiz-adv-x="517" 
d="M445 302q27 -27 1 -52l-70 -69q-26 -25 -52 2l-67 68l-68 -69q-28 -26 -53 0l-67 72q-25 26 3 52l66 66l-67 68q-27 27 -1 52l70 69q26 25 52 -2l67 -68l70 68q28 25 52 -1l67 -71q25 -26 -3 -52l-67 -65z" />
    <glyph glyph-name="plus" unicode="+" horiz-adv-x="524" 
d="M442 456q38 0 38 -36v-98q0 -36 -38 -36h-95v-95q0 -38 -36 -38h-98q-36 0 -36 38v95h-95q-38 0 -38 36v98q0 36 38 36h95v95q0 38 36 38h98q36 0 36 -38v-95h95z" />
    <glyph glyph-name="comma" unicode="," horiz-adv-x="376" 
d="M294 248q38 0 38 -36v-160q0 -18 -16 -28l-120 -94q-14 -9 -36 -10h-78q-38 0 -38 36l42 80l-42 52v124q0 36 38 36h212z" />
    <glyph glyph-name="hyphen" unicode="-" horiz-adv-x="524" 
d="M442 456q38 0 38 -36v-98q0 -36 -38 -36h-360q-38 0 -38 36v98q0 36 38 36h360z" />
    <glyph glyph-name="period" unicode="." horiz-adv-x="376" 
d="M294 248q38 0 38 -36v-176q0 -36 -38 -36h-212q-38 0 -38 36v176q0 36 38 36h212z" />
    <glyph glyph-name="slash" unicode="/" horiz-adv-x="336" 
d="M174 752q3 36 41 33l82 -5q37 -3 34 -39l-169 -757q-3 -36 -41 -33l-82 5q-37 3 -34 39z" />
    <glyph glyph-name="zero" unicode="0" horiz-adv-x="612" 
d="M38 706q0 36 38 36h460q38 0 38 -36v-670q0 -36 -38 -36h-460q-38 0 -38 36v670zM172 494v-246h268v246h-268z" />
    <glyph glyph-name="one" unicode="1" horiz-adv-x="404" 
d="M134 494h-44q-38 0 -38 36v176q0 36 38 36h142q38 0 38 -36v-458h44q38 0 38 -36v-176q0 -36 -38 -36h-224q-38 0 -38 36v176q0 36 38 36h44v246z" />
    <glyph glyph-name="two" unicode="2" horiz-adv-x="612" 
d="M574 466q-7 -34 -32 -46l-334 -172h328q35 2 38 -36v-176q-3 -38 -38 -36h-460q-38 0 -38 38v238q7 34 32 46l334 172h-230v-34q-3 -38 -38 -36h-60q-35 -2 -38 36v246q3 38 38 36h60q35 2 38 -36v-28q29 62 86 64h276q38 0 38 -38v-238z" />
    <glyph glyph-name="three" unicode="3" horiz-adv-x="617" 
d="M410 304h-154q-38 0 -38 36v62q0 36 38 36h156l28 56h-266v-34q-3 -38 -38 -36h-60q-35 -2 -38 36v246q3 38 38 36h60q35 2 38 -36v-28q29 62 86 64h276q38 0 38 -36v-176q5 -26 -74 -160q79 -132 74 -159v-175q0 -36 -38 -36h-460q-38 0 -38 36v246q3 38 38 36h60
q35 2 38 -36v-34h265z" />
    <glyph glyph-name="four" unicode="4" horiz-adv-x="694" 
d="M82 304q-50 6 -38 81l56 327q11 30 42 30h476q38 0 38 -36v-176q0 -36 -38 -36h-38v-54h38q38 0 38 -36v-64q0 -36 -38 -36h-38v-56h38q38 0 38 -36v-176q0 -36 -38 -36h-212q-38 0 -38 36v176q0 36 38 36h38v56h-362zM230 494l-9 -55h223v55h-214z" />
    <glyph glyph-name="five" unicode="5" horiz-adv-x="612" 
d="M76 0q-38 0 -38 36v174q0 36 38 36h364l-30 58h-334q-38 0 -38 36v366q0 36 38 36h460q35 2 38 -36v-178q-3 -38 -38 -36h-362v-54h278q24 0 38 -30l78 -154q6 -10 6 -24v-194q-3 -38 -38 -36h-460z" />
    <glyph glyph-name="six" unicode="6" horiz-adv-x="612" 
d="M38 706q0 36 38 36h276q57 -2 86 -64v28q3 38 38 36h60q35 2 38 -36v-176q0 -36 -38 -36h-363v-56h363q38 0 38 -36v-366q-3 -38 -38 -36h-460q-38 0 -38 36v670zM173 248h267v56h-267v-56z" />
    <glyph glyph-name="seven" unicode="7" horiz-adv-x="614" 
d="M574 490q-5 -31 -22 -46l-141 -196h17q38 0 38 -36v-176q0 -36 -38 -36h-212q-38 0 -38 36v176q0 36 38 36h25l181 246h-248v-34q-3 -38 -38 -36h-60q-35 -2 -38 36v246q3 38 38 36h460q38 0 38 -38v-214z" />
    <glyph glyph-name="eight" unicode="8" horiz-adv-x="622" 
d="M445 246l-28 56h-212l-28 -56h268zM417 438l28 56h-268l28 -56h212zM541 742q38 0 38 -36v-176q5 -26 -74 -160q79 -132 74 -159v-175q0 -36 -38 -36h-460q-38 0 -38 36v175q-5 27 74 159q-79 134 -74 160v176q0 36 38 36h460z" />
    <glyph glyph-name="nine" unicode="9" horiz-adv-x="612" 
d="M574 36q0 -36 -38 -36h-460q-35 -2 -38 36v176q0 36 38 36h363v56h-363q-38 0 -38 36v366q3 38 38 36h460q38 0 38 -36v-670zM439 494h-267v-56h267v56z" />
    <glyph glyph-name="colon" unicode=":" horiz-adv-x="376" 
d="M294 304q38 0 38 -36v-176q0 -36 -38 -36h-212q-38 0 -38 36v176q0 36 38 36h212zM294 686q38 0 38 -36v-176q0 -36 -38 -36h-212q-38 0 -38 36v176q0 36 38 36h212z" />
    <glyph glyph-name="semicolon" unicode=";" horiz-adv-x="376" 
d="M294 686q38 0 38 -36v-176q0 -36 -38 -36h-212q-38 0 -38 36v176q0 36 38 36h212zM294 304q38 0 38 -36v-160q0 -18 -16 -28l-120 -94q-14 -9 -36 -10h-78q-38 0 -38 36l42 80l-42 52v124q0 36 38 36h212z" />
    <glyph glyph-name="less" unicode="&#x3c;" horiz-adv-x="514" 
d="M336 660q31 23 52 -6l58 -79q22 -29 -9 -51l-191 -152l191 -158q31 -22 9 -51l-58 -79q-21 -29 -52 -6l-259 216q-31 22 -31 77t31 77z" />
    <glyph glyph-name="equal" unicode="=" horiz-adv-x="524" 
d="M442 572q38 0 38 -36v-98q0 -36 -38 -36h-360q-38 0 -38 36v98q0 36 38 36h360zM442 338q38 0 38 -36v-98q0 -36 -38 -36h-360q-38 0 -38 36v98q0 36 38 36h360z" />
    <glyph glyph-name="greater" unicode="&#x3e;" horiz-adv-x="514" 
d="M178 660l259 -212q31 -22 31 -77t-31 -77l-259 -216q-31 -23 -52 6l-58 79q-22 29 9 51l191 158l-191 152q-31 22 -9 51l58 79q21 29 52 6z" />
    <glyph glyph-name="question" unicode="?" horiz-adv-x="664" 
d="M250 382q7 34 32 46l148 66h-230v-34q-3 -38 -38 -36h-60q-35 -2 -38 36v246q3 38 38 36h60q35 2 38 -36v-28q29 62 86 64h276q38 0 38 -38v-238q-7 -34 -32 -46l-148 -66q-2 -44 -39 -44h-93q-37 0 -38 38v34zM442 248q38 0 38 -36v-176q0 -36 -38 -36h-212
q-38 0 -38 36v176q0 36 38 36h212z" />
    <glyph glyph-name="at" unicode="@" horiz-adv-x="998" 
d="M40 429q0 189 133.5 321t325.5 132t325.5 -132t133.5 -321t-133.5 -321t-325.5 -132t-325.5 132t-133.5 321zM179 429q0 -132 93 -224t227 -92t227 92t93 224t-93 224t-227 92t-227 -92t-93 -224zM273 550q2 49 48.5 93t133.5 43h63q31 -1 57 -55l15 55q27 2 68 -6.5
t66 -29.5q22 -29 16 -69q-10 -70 -36 -100t-51 -28q-113 36 -117 47l6 19q-13 15 -31 18h-26q-21 -5 -21 -38q-7 -9 104.5 -50t127.5 -60q32 -29 29 -83q-2 -49 -48.5 -93t-133.5 -43h-63q-31 1 -57 55l-15 -55q-27 -2 -68 6.5t-66 29.5q-22 29 -16 69q10 70 36 100t51 28
q113 -36 117 -47l-6 -19q13 -15 31 -18h26q21 5 21 38q7 9 -105 53.5t-127 56.5q-32 29 -29 83z" />
    <glyph glyph-name="A" unicode="A" horiz-adv-x="740" 
d="M102 248l68 246h-38q-38 0 -38 36v176q0 36 38 36h476q38 0 38 -36v-176q0 -36 -38 -36h-38l68 -246h38q38 0 38 -36v-176q0 -36 -38 -36h-212q-38 0 -38 36v176q0 36 38 36h38l-9 34h-246l-9 -34h38q38 0 38 -36v-176q0 -36 -38 -36h-212q-38 0 -38 36v176q0 36 38 36
h38zM434 494h-128l-21 -76h170z" />
    <glyph glyph-name="B" unicode="B" horiz-adv-x="693" 
d="M76 0q-38 0 -38 36v176q0 36 38 36h38v246h-38q-38 0 -38 36v176q0 36 38 36h536q38 0 38 -36v-176q5 -26 -74 -160q79 -132 74 -159v-175q0 -36 -38 -36h-536zM516 494h-266v-56h238zM516 246l-28 56h-238v-56h266z" />
    <glyph glyph-name="C" unicode="C" horiz-adv-x="612" 
d="M76 0q-38 0 -38 36v670q0 36 38 36h276q57 -2 86 -64v28q3 38 38 36h60q35 2 38 -36v-246q-3 -38 -38 -36h-60q-35 -2 -38 36v34h-266v-246h266v34q3 38 38 36h60q35 2 38 -36v-246q0 -36 -38 -36h-460z" />
    <glyph glyph-name="D" unicode="D" horiz-adv-x="688" 
d="M76 0q-38 0 -38 36v176q0 36 38 36h38v246h-38q-38 0 -38 36v176q0 36 38 36h484q51 -2 70.5 -40.5t19.5 -101.5v-458q0 -63 -19.5 -101.5t-70.5 -40.5h-484zM516 456q0 37 -26 38h-240v-246h240q26 1 26 38v170z" />
    <glyph glyph-name="E" unicode="E" horiz-adv-x="688" 
d="M114 494h-38q-38 0 -38 36v176q0 36 38 36h536q38 0 38 -36v-246q-3 -38 -38 -36h-60q-35 -2 -38 36v34h-264v-56h186q38 0 38 -36v-62q0 -36 -38 -36h-186v-56h264v34q3 38 38 36h60q35 2 38 -36v-246q0 -36 -38 -36h-536q-38 0 -38 36v176q0 36 38 36h38v246z" />
    <glyph glyph-name="F" unicode="F" horiz-adv-x="688" 
d="M114 494h-38q-38 0 -38 36v176q0 36 38 36h536q38 0 38 -36v-246q-3 -38 -38 -36h-60q-35 -2 -38 36v34h-264v-56h186q38 0 38 -36v-62q0 -36 -38 -36h-186v-56h38q35 2 38 -36v-176q0 -36 -38 -36h-212q-38 0 -38 36v176q0 36 38 36h38v246z" />
    <glyph glyph-name="G" unicode="G" horiz-adv-x="612" 
d="M38 706q0 36 38 36h276q57 -2 86 -64v28q3 38 38 36h60q35 2 38 -36v-176q0 -36 -38 -36h-363v-246h233q37 5 34 56h-120q-38 0 -38 36v62q0 36 38 36h216q38 0 38 -36v-366q-3 -38 -38 -36h-60q-35 -2 -38 36v28q-29 -62 -86 -64h-276q-38 0 -38 36v670z" />
    <glyph glyph-name="H" unicode="H" horiz-adv-x="764" 
d="M114 494h-38q-38 0 -38 36v176q0 36 38 36h212q38 0 38 -36v-176q0 -36 -38 -36h-38v-56h264v56h-38q-38 0 -38 36v176q0 36 38 36h212q38 0 38 -36v-176q0 -36 -38 -36h-38v-246h38q38 0 38 -36v-176q0 -36 -38 -36h-212q-38 0 -38 36v176q0 36 38 36h38v55h-264v-55h38
q38 0 38 -36v-176q0 -36 -38 -36h-212q-38 0 -38 36v176q0 36 38 36h38v246z" />
    <glyph glyph-name="I" unicode="I" horiz-adv-x="364" 
d="M114 494h-38q-38 0 -38 36v176q0 36 38 36h212q38 0 38 -36v-176q0 -36 -38 -36h-38v-246h38q38 0 38 -36v-176q0 -36 -38 -36h-212q-38 0 -38 36v176q0 36 38 36h38v246z" />
    <glyph glyph-name="J" unicode="J" horiz-adv-x="688" 
d="M536 0h-460q-38 0 -38 36v246q3 38 38 36h60q35 2 38 -36v-34h266v246h-38q-38 0 -38 36v176q0 36 38 36h212q38 0 38 -36v-176q0 -36 -38 -36h-38v-454q-2 -40 -40 -40z" />
    <glyph glyph-name="K" unicode="K" horiz-adv-x="762" 
d="M114 494h-38q-38 0 -38 36v176q0 36 38 36h212q38 0 38 -36v-176q0 -36 -38 -36h-38v-120l244 120h-20q-38 0 -38 36v176q0 36 38 36h212q38 0 38 -36v-176q0 -36 -38 -36h-40v-28q1 -25 -16 -36l-130 -62l144 -120h42q38 0 38 -36v-176q0 -36 -38 -36h-212q-38 0 -38 36
v176q0 36 38 36h10l-88 70l-141 -70h33q38 0 38 -36v-176q0 -36 -38 -36h-212q-38 0 -38 36v176q0 36 38 36h38v246z" />
    <glyph glyph-name="L" unicode="L" horiz-adv-x="684" 
d="M114 248v246h-38q-38 0 -38 36v176q0 36 38 36h212q38 0 38 -36v-176q-3 -38 -38 -36h-38v-246h264v34q3 38 38 36h60q35 2 38 -36v-246q0 -36 -38 -36h-536q-38 0 -38 36v176q0 36 38 36h38z" />
    <glyph glyph-name="M" unicode="M" horiz-adv-x="946" 
d="M328 704l144 -456l146 456q13 39 48 38h204q38 0 38 -36v-176q0 -36 -38 -36h-38v-246h38q38 0 38 -36v-176q0 -36 -38 -36h-212q-38 0 -38 36v176q0 36 38 36h38v246l-143 -455q-9 -37 -37 -39h-86q-28 2 -37 39l-143 455v-246h38q38 0 38 -36v-176q0 -36 -38 -36h-212
q-38 0 -38 36v176q0 36 38 36h38v246h-38q-38 0 -38 36v176q0 36 38 36h204q35 1 48 -38z" />
    <glyph glyph-name="N" unicode="N" horiz-adv-x="764" 
d="M284 714l230 -442v222h-38q-38 0 -38 36v176q0 36 38 36h212q38 0 38 -36v-176q0 -36 -38 -36h-38v-246h38q38 0 38 -36v-176q0 -36 -38 -36h-166q-31 2 -42 28l-230 442v-222h38q38 0 38 -36v-176q0 -36 -38 -36h-212q-38 0 -38 36v176q0 36 38 36h38v246h-38
q-38 0 -38 36v176q0 36 38 36h166q31 -2 42 -28z" />
    <glyph glyph-name="O" unicode="O" horiz-adv-x="612" 
d="M38 706q0 36 38 36h460q38 0 38 -36v-670q0 -36 -38 -36h-460q-38 0 -38 36v670zM172 494v-246h268v246h-268z" />
    <glyph glyph-name="P" unicode="P" horiz-adv-x="688" 
d="M114 494h-38q-38 0 -38 36v176q0 36 38 36h536q38 0 38 -36v-366q0 -36 -38 -36h-362v-56h38q38 0 38 -36v-176q0 -36 -38 -36h-212q-38 0 -38 36v176q0 36 38 36h38v246zM516 438v56h-266v-56h266z" />
    <glyph glyph-name="Q" unicode="Q" horiz-adv-x="612" 
d="M38 706q0 36 38 36h460q38 0 38 -36v-670q0 -36 -38 -36h-162v-78q-3 -38 -38 -36h-60q-35 -2 -38 36v78h-162q-38 0 -38 36v670zM172 494v-246h268v246h-268z" />
    <glyph glyph-name="R" unicode="R" horiz-adv-x="724" 
d="M114 494h-38q-38 0 -38 36v176q0 36 38 36h536q38 0 38 -36v-366q0 -36 -38 -36h-68l74 -56h42q38 0 38 -36v-176q0 -36 -38 -36h-212q-38 0 -38 36v176q0 36 38 36h10l-83 56h-125v-56h38q38 0 38 -36v-176q0 -36 -38 -36h-212q-38 0 -38 36v176q0 36 38 36h38v246z
M516 438v56h-266v-56h266z" />
    <glyph glyph-name="S" unicode="S" horiz-adv-x="612" 
d="M38 466v238q0 38 38 38h276q57 -2 86 -64v28q3 38 38 36h60q35 2 38 -36v-246q-3 -38 -38 -36h-60q-35 -2 -38 36v34h-230l334 -172q25 -12 32 -46v-238q0 -38 -38 -38h-276q-57 2 -86 64v-28q-3 -38 -38 -36h-60q-35 -2 -38 36v246q3 38 38 36h60q35 2 38 -36v-34h230
l-334 172q-25 12 -32 46z" />
    <glyph glyph-name="T" unicode="T" horiz-adv-x="608" 
d="M534 742q38 0 38 -36v-246q-3 -38 -38 -36h-60q-35 -2 -38 36v34h-64v-246h38q38 0 38 -36v-176q0 -36 -38 -36h-212q-38 0 -38 36v176q0 36 38 36h38v246h-64v-34q-3 -38 -38 -36h-60q-35 -2 -38 36v246q0 36 38 36h460z" />
    <glyph glyph-name="U" unicode="U" horiz-adv-x="762" 
d="M156 0q-44 0 -44 40v454h-38q-38 0 -38 36v176q0 36 38 36h212q38 0 38 -36v-176q0 -36 -38 -36h-38v-246h266v246h-38q-38 0 -38 36v176q0 36 38 36h212q38 0 38 -36v-176q0 -36 -38 -36h-38v-454q0 -40 -40 -40h-454z" />
    <glyph glyph-name="V" unicode="V" horiz-adv-x="740" 
d="M102 494h-38q-38 0 -38 36v176q0 36 38 36h212q38 0 38 -36v-176q0 -36 -38 -36h-38l68 -246h128l68 246h-38q-38 0 -38 36v176q0 36 38 36h212q38 0 38 -36v-176q0 -36 -38 -36h-38l-68 -246h38q38 0 38 -36v-176q0 -36 -38 -36h-476q-38 0 -38 36v176q0 36 38 36h38z
" />
    <glyph glyph-name="W" unicode="W" horiz-adv-x="922" 
d="M102 494h-38q-38 0 -38 36v176q0 36 38 36h212q38 0 38 -36v-176q0 -36 -38 -36h-38l45 -203l95 415q7 36 34 36h98q27 0 34 -36l95 -415l45 203h-38q-38 0 -38 36v176q0 36 38 36h212q38 0 38 -36v-176q0 -36 -38 -36h-38l-54 -246h38q38 0 38 -36v-176q0 -36 -38 -36
h-204q-34 0 -44 32l-94 412l-96 -412q-10 -32 -44 -32h-204q-38 0 -38 36v176q0 36 38 36h38z" />
    <glyph glyph-name="X" unicode="X" horiz-adv-x="768" 
d="M125 494h-47q-38 0 -38 36v176q0 36 38 36h212q38 0 38 -36v-176q0 -36 -38 -36h-35l29 -56h200l29 56h-35q-38 0 -38 36v176q0 36 38 36h212q38 0 38 -36v-176q0 -36 -38 -36h-47l-61 -124l63 -122h47q38 0 38 -36v-176q0 -36 -38 -36h-212q-38 0 -38 36v176q0 36 38 36
h35l-31 54h-200l-31 -54h35q38 0 38 -36v-176q0 -36 -38 -36h-212q-38 0 -38 36v176q0 36 38 36h47l63 122z" />
    <glyph glyph-name="Y" unicode="Y" horiz-adv-x="736" 
d="M109 494h-47q-38 0 -38 36v176q0 36 38 36h212q38 0 38 -36v-176q0 -36 -38 -36h-35l29 -56h200l29 56h-35q-38 0 -38 36v176q0 36 38 36h212q38 0 38 -36v-176q0 -36 -38 -36h-47l-83 -162q-12 -24 -36 -30h-72v-54h38q38 0 38 -36v-176q0 -36 -38 -36h-212
q-38 0 -38 36v176q0 36 38 36h38v54h-72q-24 6 -36 30z" />
    <glyph glyph-name="Z" unicode="Z" horiz-adv-x="612" 
d="M574 466q-7 -34 -32 -46l-334 -172h230v34q3 38 38 36h60q35 2 38 -36v-246q-3 -38 -38 -36h-460q-38 0 -38 38v238q7 34 32 46l334 172h-230v-34q-3 -38 -38 -36h-60q-35 -2 -38 36v246q3 38 38 36h460q38 0 38 -38v-238z" />
    <glyph glyph-name="bracketleft" unicode="[" horiz-adv-x="316" 
d="M40 766q1 37 40 40h160q38 0 38 -36v-176q0 -36 -38 -36h-32v-370h32q38 0 38 -36v-176q0 -36 -38 -36h-160q-39 3 -40 40v786z" />
    <glyph glyph-name="backslash" unicode="\" horiz-adv-x="336" 
d="M162 752l169 -757q3 -36 -34 -39l-82 -5q-38 -3 -41 33l-169 757q-3 36 34 39l82 5q38 3 41 -33z" />
    <glyph glyph-name="bracketright" unicode="]" horiz-adv-x="316" 
d="M276 766v-786q-1 -37 -40 -40h-160q-38 0 -38 36v176q0 36 38 36h32v370h-32q-38 0 -38 36v176q0 36 38 36h160q39 -3 40 -40z" />
    <glyph glyph-name="asciicircum" unicode="^" 
 />
    <glyph glyph-name="underscore" unicode="_" horiz-adv-x="524" 
d="M442 170q38 0 38 -36v-98q0 -36 -38 -36h-360q-38 0 -38 36v98q0 36 38 36h360z" />
    <glyph glyph-name="grave" unicode="`" horiz-adv-x="738" 
d="M211 996l350 -89q37 -9 27 -44l-16 -64q-9 -35 -45 -25l-350 89q-37 9 -27 44l16 64q9 35 45 25z" />
    <glyph glyph-name="a" unicode="a" horiz-adv-x="740" 
d="M102 248l68 246h-38q-38 0 -38 36v176q0 36 38 36h476q38 0 38 -36v-176q0 -36 -38 -36h-38l68 -246h38q38 0 38 -36v-176q0 -36 -38 -36h-212q-38 0 -38 36v176q0 36 38 36h38l-9 34h-246l-9 -34h38q38 0 38 -36v-176q0 -36 -38 -36h-212q-38 0 -38 36v176q0 36 38 36
h38zM434 494h-128l-21 -76h170z" />
    <glyph glyph-name="b" unicode="b" horiz-adv-x="693" 
d="M76 0q-38 0 -38 36v176q0 36 38 36h38v246h-38q-38 0 -38 36v176q0 36 38 36h536q38 0 38 -36v-176q5 -26 -74 -160q79 -132 74 -159v-175q0 -36 -38 -36h-536zM516 494h-266v-56h238zM516 246l-28 56h-238v-56h266z" />
    <glyph glyph-name="c" unicode="c" horiz-adv-x="612" 
d="M76 0q-38 0 -38 36v670q0 36 38 36h276q57 -2 86 -64v28q3 38 38 36h60q35 2 38 -36v-246q-3 -38 -38 -36h-60q-35 -2 -38 36v34h-266v-246h266v34q3 38 38 36h60q35 2 38 -36v-246q0 -36 -38 -36h-460z" />
    <glyph glyph-name="d" unicode="d" horiz-adv-x="688" 
d="M76 0q-38 0 -38 36v176q0 36 38 36h38v246h-38q-38 0 -38 36v176q0 36 38 36h484q51 -2 70.5 -40.5t19.5 -101.5v-458q0 -63 -19.5 -101.5t-70.5 -40.5h-484zM516 456q0 37 -26 38h-240v-246h240q26 1 26 38v170z" />
    <glyph glyph-name="e" unicode="e" horiz-adv-x="688" 
d="M114 494h-38q-38 0 -38 36v176q0 36 38 36h536q38 0 38 -36v-246q-3 -38 -38 -36h-60q-35 -2 -38 36v34h-264v-56h186q38 0 38 -36v-62q0 -36 -38 -36h-186v-56h264v34q3 38 38 36h60q35 2 38 -36v-246q0 -36 -38 -36h-536q-38 0 -38 36v176q0 36 38 36h38v246z" />
    <glyph glyph-name="f" unicode="f" horiz-adv-x="688" 
d="M114 494h-38q-38 0 -38 36v176q0 36 38 36h536q38 0 38 -36v-246q-3 -38 -38 -36h-60q-35 -2 -38 36v34h-264v-56h186q38 0 38 -36v-62q0 -36 -38 -36h-186v-56h38q35 2 38 -36v-176q0 -36 -38 -36h-212q-38 0 -38 36v176q0 36 38 36h38v246z" />
    <glyph glyph-name="g" unicode="g" horiz-adv-x="612" 
d="M38 706q0 36 38 36h276q57 -2 86 -64v28q3 38 38 36h60q35 2 38 -36v-176q0 -36 -38 -36h-363v-246h233q37 5 34 56h-120q-38 0 -38 36v62q0 36 38 36h216q38 0 38 -36v-366q-3 -38 -38 -36h-60q-35 -2 -38 36v28q-29 -62 -86 -64h-276q-38 0 -38 36v670z" />
    <glyph glyph-name="h" unicode="h" horiz-adv-x="764" 
d="M114 494h-38q-38 0 -38 36v176q0 36 38 36h212q38 0 38 -36v-176q0 -36 -38 -36h-38v-56h264v56h-38q-38 0 -38 36v176q0 36 38 36h212q38 0 38 -36v-176q0 -36 -38 -36h-38v-246h38q38 0 38 -36v-176q0 -36 -38 -36h-212q-38 0 -38 36v176q0 36 38 36h38v55h-264v-55h38
q38 0 38 -36v-176q0 -36 -38 -36h-212q-38 0 -38 36v176q0 36 38 36h38v246z" />
    <glyph glyph-name="i" unicode="i" horiz-adv-x="364" 
d="M114 494h-38q-38 0 -38 36v176q0 36 38 36h212q38 0 38 -36v-176q0 -36 -38 -36h-38v-246h38q38 0 38 -36v-176q0 -36 -38 -36h-212q-38 0 -38 36v176q0 36 38 36h38v246z" />
    <glyph glyph-name="j" unicode="j" horiz-adv-x="688" 
d="M536 0h-460q-38 0 -38 36v246q3 38 38 36h60q35 2 38 -36v-34h266v246h-38q-38 0 -38 36v176q0 36 38 36h212q38 0 38 -36v-176q0 -36 -38 -36h-38v-454q-2 -40 -40 -40z" />
    <glyph glyph-name="k" unicode="k" horiz-adv-x="762" 
d="M114 494h-38q-38 0 -38 36v176q0 36 38 36h212q38 0 38 -36v-176q0 -36 -38 -36h-38v-120l244 120h-20q-38 0 -38 36v176q0 36 38 36h212q38 0 38 -36v-176q0 -36 -38 -36h-40v-28q1 -25 -16 -36l-130 -62l144 -120h42q38 0 38 -36v-176q0 -36 -38 -36h-212q-38 0 -38 36
v176q0 36 38 36h10l-88 70l-141 -70h33q38 0 38 -36v-176q0 -36 -38 -36h-212q-38 0 -38 36v176q0 36 38 36h38v246z" />
    <glyph glyph-name="l" unicode="l" horiz-adv-x="684" 
d="M114 248v246h-38q-38 0 -38 36v176q0 36 38 36h212q38 0 38 -36v-176q-3 -38 -38 -36h-38v-246h264v34q3 38 38 36h60q35 2 38 -36v-246q0 -36 -38 -36h-536q-38 0 -38 36v176q0 36 38 36h38z" />
    <glyph glyph-name="m" unicode="m" horiz-adv-x="946" 
d="M328 704l144 -456l146 456q13 39 48 38h204q38 0 38 -36v-176q0 -36 -38 -36h-38v-246h38q38 0 38 -36v-176q0 -36 -38 -36h-212q-38 0 -38 36v176q0 36 38 36h38v246l-143 -455q-9 -37 -37 -39h-86q-28 2 -37 39l-143 455v-246h38q38 0 38 -36v-176q0 -36 -38 -36h-212
q-38 0 -38 36v176q0 36 38 36h38v246h-38q-38 0 -38 36v176q0 36 38 36h204q35 1 48 -38z" />
    <glyph glyph-name="n" unicode="n" horiz-adv-x="764" 
d="M284 714l230 -442v222h-38q-38 0 -38 36v176q0 36 38 36h212q38 0 38 -36v-176q0 -36 -38 -36h-38v-246h38q38 0 38 -36v-176q0 -36 -38 -36h-166q-31 2 -42 28l-230 442v-222h38q38 0 38 -36v-176q0 -36 -38 -36h-212q-38 0 -38 36v176q0 36 38 36h38v246h-38
q-38 0 -38 36v176q0 36 38 36h166q31 -2 42 -28z" />
    <glyph glyph-name="o" unicode="o" horiz-adv-x="612" 
d="M38 706q0 36 38 36h460q38 0 38 -36v-670q0 -36 -38 -36h-460q-38 0 -38 36v670zM172 494v-246h268v246h-268z" />
    <glyph glyph-name="p" unicode="p" horiz-adv-x="688" 
d="M114 494h-38q-38 0 -38 36v176q0 36 38 36h536q38 0 38 -36v-366q0 -36 -38 -36h-362v-56h38q38 0 38 -36v-176q0 -36 -38 -36h-212q-38 0 -38 36v176q0 36 38 36h38v246zM516 438v56h-266v-56h266z" />
    <glyph glyph-name="q" unicode="q" horiz-adv-x="612" 
d="M38 706q0 36 38 36h460q38 0 38 -36v-670q0 -36 -38 -36h-162v-78q-3 -38 -38 -36h-60q-35 -2 -38 36v78h-162q-38 0 -38 36v670zM172 494v-246h268v246h-268z" />
    <glyph glyph-name="r" unicode="r" horiz-adv-x="726" 
d="M114 494h-38q-38 0 -38 36v176q0 36 38 36h536q38 0 38 -36v-366q0 -36 -38 -36h-68l74 -56h42q38 0 38 -36v-176q0 -36 -38 -36h-212q-38 0 -38 36v176q0 36 38 36h10l-83 56h-125v-56h38q38 0 38 -36v-176q0 -36 -38 -36h-212q-38 0 -38 36v176q0 36 38 36h38v246z
M516 438v56h-266v-56h266z" />
    <glyph glyph-name="s" unicode="s" horiz-adv-x="612" 
d="M38 466v238q0 38 38 38h276q57 -2 86 -64v28q3 38 38 36h60q35 2 38 -36v-246q-3 -38 -38 -36h-60q-35 -2 -38 36v34h-230l334 -172q25 -12 32 -46v-238q0 -38 -38 -38h-276q-57 2 -86 64v-28q-3 -38 -38 -36h-60q-35 -2 -38 36v246q3 38 38 36h60q35 2 38 -36v-34h230
l-334 172q-25 12 -32 46z" />
    <glyph glyph-name="t" unicode="t" horiz-adv-x="608" 
d="M534 742q38 0 38 -36v-246q-3 -38 -38 -36h-60q-35 -2 -38 36v34h-64v-246h38q38 0 38 -36v-176q0 -36 -38 -36h-212q-38 0 -38 36v176q0 36 38 36h38v246h-64v-34q-3 -38 -38 -36h-60q-35 -2 -38 36v246q0 36 38 36h460z" />
    <glyph glyph-name="u" unicode="u" horiz-adv-x="762" 
d="M156 0q-44 0 -44 40v454h-38q-38 0 -38 36v176q0 36 38 36h212q38 0 38 -36v-176q0 -36 -38 -36h-38v-246h266v246h-38q-38 0 -38 36v176q0 36 38 36h212q38 0 38 -36v-176q0 -36 -38 -36h-38v-454q0 -40 -40 -40h-454z" />
    <glyph glyph-name="v" unicode="v" horiz-adv-x="740" 
d="M102 494h-38q-38 0 -38 36v176q0 36 38 36h212q38 0 38 -36v-176q0 -36 -38 -36h-38l68 -246h128l68 246h-38q-38 0 -38 36v176q0 36 38 36h212q38 0 38 -36v-176q0 -36 -38 -36h-38l-68 -246h38q38 0 38 -36v-176q0 -36 -38 -36h-476q-38 0 -38 36v176q0 36 38 36h38z
" />
    <glyph glyph-name="w" unicode="w" horiz-adv-x="926" 
d="M104 494h-38q-38 0 -38 36v176q0 36 38 36h212q38 0 38 -36v-176q0 -36 -38 -36h-38l45 -203l95 415q7 36 34 36h98q27 0 34 -36l95 -415l45 203h-38q-38 0 -38 36v176q0 36 38 36h212q38 0 38 -36v-176q0 -36 -38 -36h-38l-54 -246h38q38 0 38 -36v-176q0 -36 -38 -36
h-204q-34 0 -44 32l-94 412l-96 -412q-10 -32 -44 -32h-204q-38 0 -38 36v176q0 36 38 36h38z" />
    <glyph glyph-name="x" unicode="x" horiz-adv-x="768" 
d="M125 494h-47q-38 0 -38 36v176q0 36 38 36h212q38 0 38 -36v-176q0 -36 -38 -36h-35l29 -56h200l29 56h-35q-38 0 -38 36v176q0 36 38 36h212q38 0 38 -36v-176q0 -36 -38 -36h-47l-61 -124l63 -122h47q38 0 38 -36v-176q0 -36 -38 -36h-212q-38 0 -38 36v176q0 36 38 36
h35l-31 54h-200l-31 -54h35q38 0 38 -36v-176q0 -36 -38 -36h-212q-38 0 -38 36v176q0 36 38 36h47l63 122z" />
    <glyph glyph-name="y" unicode="y" horiz-adv-x="736" 
d="M109 494h-47q-38 0 -38 36v176q0 36 38 36h212q38 0 38 -36v-176q0 -36 -38 -36h-35l29 -56h200l29 56h-35q-38 0 -38 36v176q0 36 38 36h212q38 0 38 -36v-176q0 -36 -38 -36h-47l-83 -162q-12 -24 -36 -30h-72v-54h38q38 0 38 -36v-176q0 -36 -38 -36h-212
q-38 0 -38 36v176q0 36 38 36h38v54h-72q-24 6 -36 30z" />
    <glyph glyph-name="z" unicode="z" horiz-adv-x="612" 
d="M574 466q-7 -34 -32 -46l-334 -172h230v34q3 38 38 36h60q35 2 38 -36v-246q-3 -38 -38 -36h-460q-38 0 -38 38v238q7 34 32 46l334 172h-230v-34q-3 -38 -38 -36h-60q-35 -2 -38 36v246q3 38 38 36h460q38 0 38 -38v-238z" />
    <glyph glyph-name="braceleft" unicode="{" 
 />
    <glyph glyph-name="bar" unicode="|" horiz-adv-x="264" 
d="M48 744q1 37 40 40h88q35 -3 40 -38v-752q-5 -35 -40 -38h-88q-39 3 -40 40v748z" />
    <glyph glyph-name="braceright" unicode="}" 
 />
    <glyph glyph-name="asciitilde" unicode="~" 
 />
    <glyph glyph-name="uni00A0" unicode="&#xa0;" 
 />
    <glyph glyph-name="exclamdown" unicode="&#xa1;" horiz-adv-x="660" 
d="M438 494h-212q-38 0 -38 36v176q0 36 38 36h212q38 0 38 -36v-176q0 -36 -38 -36zM558 0h-456q-38 0 -38 38v238q5 27 32 46l166 105q7 4 22 5h93q14 -1 21 -5l166 -105q25 -14 32 -46v-238q0 -38 -38 -38z" />
    <glyph glyph-name="cent" unicode="&#xa2;" horiz-adv-x="612" 
d="M76 0q-38 0 -38 36v670q0 36 38 36h211l9 54q3 36 41 33l58 -9q37 -3 34 -39l-12 -70q12 -14 21 -33v28q3 38 38 36h60q35 2 38 -36v-246q-3 -38 -38 -36h-60q-35 -2 -38 36v34h-57l-42 -246h99v34q3 38 38 36h60q35 2 38 -36v-246q0 -36 -38 -36h-238l-8 -46
q-3 -36 -41 -33l-58 9q-37 3 -34 39l5 31h-86zM172 494v-246h32l41 246h-73z" />
    <glyph glyph-name="sterling" unicode="&#xa3;" horiz-adv-x="638" 
d="M102 0q-38 0 -38 36l24 268h-16q-38 0 -38 36v62q0 36 38 36h12l-20 132v136q0 36 38 36h234q63 -2 92 -64v28q3 38 38 36h60q35 2 38 -36v-246q-3 -38 -38 -36h-60q-35 -2 -38 36v34h-230l5 -56h87q38 0 38 -36v-62q0 -36 -38 -36h-86l-6 -56h266v34q3 38 38 36h60
q35 2 38 -36v-246q0 -36 -38 -36h-460z" />
    <glyph glyph-name="currency" unicode="&#xa4;" 
 />
    <glyph glyph-name="yen" unicode="&#xa5;" 
 />
    <glyph glyph-name="brokenbar" unicode="&#xa6;" 
 />
    <glyph glyph-name="section" unicode="&#xa7;" 
 />
    <glyph glyph-name="dieresis" unicode="&#xa8;" horiz-adv-x="754" 
d="M120 893q0 46 30.5 77.5t73.5 31.5t73.5 -31.5t30.5 -77.5t-30.5 -77.5t-73.5 -31.5t-73.5 31.5t-30.5 77.5zM426 893q0 46 30.5 77.5t73.5 31.5t73.5 -31.5t30.5 -77.5t-30.5 -77.5t-73.5 -31.5t-73.5 31.5t-30.5 77.5z" />
    <glyph glyph-name="copyright" unicode="&#xa9;" 
 />
    <glyph glyph-name="ordfeminine" unicode="&#xaa;" 
 />
    <glyph glyph-name="guillemotleft" unicode="&#xab;" horiz-adv-x="594" 
d="M326 721l-125 -347l125 -347q12 -35 -19 -52l-76 -33q-31 -14 -44 19l-140 393q-9 18 0 42l140 391q13 33 44 19l76 -33q31 -17 19 -52zM546 721l-125 -347l125 -347q12 -35 -19 -52l-76 -33q-31 -14 -44 19l-140 393q-9 18 0 42l140 391q13 33 44 19l76 -33
q31 -17 19 -52z" />
    <glyph glyph-name="logicalnot" unicode="&#xac;" 
 />
    <glyph glyph-name="uni00AD" unicode="&#xad;" 
 />
    <glyph glyph-name="registered" unicode="&#xae;" 
 />
    <glyph glyph-name="macron" unicode="&#xaf;" 
 />
    <glyph glyph-name="degree" unicode="&#xb0;" horiz-adv-x="754" 
d="M418 1002q76 0 76 -80v-58q0 -80 -76 -80h-82q-76 0 -76 80v58q0 80 76 80h82zM392 935h-30q-30 0 -30 -30v-23q0 -30 30 -30h30q30 0 30 30v23q0 30 -30 30z" />
    <glyph glyph-name="plusminus" unicode="&#xb1;" 
 />
    <glyph glyph-name="uni00B2" unicode="&#xb2;" 
 />
    <glyph glyph-name="uni00B3" unicode="&#xb3;" 
 />
    <glyph glyph-name="acute" unicode="&#xb4;" horiz-adv-x="750" 
d="M533 996q36 10 45 -25l16 -64q10 -35 -27 -44l-350 -89q-36 -10 -45 25l-16 64q-10 35 27 44z" />
    <glyph glyph-name="mu" unicode="&#xb5;" 
 />
    <glyph glyph-name="paragraph" unicode="&#xb6;" 
 />
    <glyph glyph-name="periodcentered" unicode="&#xb7;" horiz-adv-x="428" 
d="M320 508q38 0 38 -36v-204q0 -36 -38 -36h-212q-38 0 -38 36v204q0 36 38 36h212z" />
    <glyph glyph-name="cedilla" unicode="&#xb8;" horiz-adv-x="513" 
d="M385 0v-191q-1 -38 -37 -37h-184q-36 1 -35 39v90q1 38 39 37h48v62h169z" />
    <glyph glyph-name="uni00B9" unicode="&#xb9;" 
 />
    <glyph glyph-name="ordmasculine" unicode="&#xba;" 
 />
    <glyph glyph-name="guillemotright" unicode="&#xbb;" horiz-adv-x="594" 
d="M268 721q-12 35 19 52l76 33q31 14 44 -19l140 -391q9 -24 0 -42l-140 -393q-13 -33 -44 -19l-76 33q-31 17 -19 52l125 347zM48 721q-12 35 19 52l76 33q31 14 44 -19l140 -391q9 -24 0 -42l-140 -393q-13 -33 -44 -19l-76 33q-31 17 -19 52l125 347z" />
    <glyph glyph-name="onequarter" unicode="&#xbc;" 
 />
    <glyph glyph-name="onehalf" unicode="&#xbd;" 
 />
    <glyph glyph-name="threequarters" unicode="&#xbe;" 
 />
    <glyph glyph-name="questiondown" unicode="&#xbf;" horiz-adv-x="664" 
d="M414 362q-7 -34 -32 -46l-148 -66h230v34q3 38 38 36h60q35 2 38 -36v-246q-3 -38 -38 -36h-60q-35 -2 -38 36v28q-29 -62 -86 -64h-276q-38 0 -38 38v238q7 34 32 46l148 66q2 44 39 44h93q37 0 38 -38v-34zM222 496q-38 0 -38 36v176q0 36 38 36h212q38 0 38 -36v-176
q0 -36 -38 -36h-212z" />
    <glyph glyph-name="Agrave" unicode="&#xc0;" horiz-adv-x="740" 
d="M102 248l68 246h-38q-38 0 -38 36v176q0 36 38 36h476q38 0 38 -36v-176q0 -36 -38 -36h-38l68 -246h38q38 0 38 -36v-176q0 -36 -38 -36h-212q-38 0 -38 36v176q0 36 38 36h38l-9 34h-246l-9 -34h38q38 0 38 -36v-176q0 -36 -38 -36h-212q-38 0 -38 36v176q0 36 38 36
h38zM434 494h-128l-21 -76h170zM214 996l350 -89q37 -9 27 -44l-16 -64q-9 -35 -45 -25l-350 89q-37 9 -27 44l16 64q9 35 45 25z" />
    <glyph glyph-name="Aacute" unicode="&#xc1;" horiz-adv-x="740" 
d="M102 248l68 246h-38q-38 0 -38 36v176q0 36 38 36h476q38 0 38 -36v-176q0 -36 -38 -36h-38l68 -246h38q38 0 38 -36v-176q0 -36 -38 -36h-212q-38 0 -38 36v176q0 36 38 36h38l-9 34h-246l-9 -34h38q38 0 38 -36v-176q0 -36 -38 -36h-212q-38 0 -38 36v176q0 36 38 36
h38zM434 494h-128l-21 -76h170zM530 996q36 10 45 -25l16 -64q10 -35 -27 -44l-350 -89q-36 -10 -45 25l-16 64q-10 35 27 44z" />
    <glyph glyph-name="Acircumflex" unicode="&#xc2;" horiz-adv-x="740" 
d="M102 248l68 246h-38q-38 0 -38 36v176q0 36 38 36h476q38 0 38 -36v-176q0 -36 -38 -36h-38l68 -246h38q38 0 38 -36v-176q0 -36 -38 -36h-212q-38 0 -38 36v176q0 36 38 36h38l-9 34h-246l-9 -34h38q38 0 38 -36v-176q0 -36 -38 -36h-212q-38 0 -38 36v176q0 36 38 36
h38zM434 494h-128l-21 -76h170zM332 998q35 12 74 0l148 -94q23 -17 22 -54l-17 -49q-15 -32 -53 -21l-137 86l-137 -86q-38 -11 -53 21l-17 49q-1 37 22 54z" />
    <glyph glyph-name="Atilde" unicode="&#xc3;" horiz-adv-x="740" 
d="M102 248l68 246h-38q-38 0 -38 36v176q0 36 38 36h476q38 0 38 -36v-176q0 -36 -38 -36h-38l68 -246h38q38 0 38 -36v-176q0 -36 -38 -36h-212q-38 0 -38 36v176q0 36 38 36h38l-9 34h-246l-9 -34h38q38 0 38 -36v-176q0 -36 -38 -36h-212q-38 0 -38 36v176q0 36 38 36
h38zM434 494h-128l-21 -76h170zM270 994q40 17 78 0l86 -77l88 81q38 11 53 -21l17 -49q1 -37 -22 -54l-100 -90q-33 -15 -74 0l-89 78l-85 -78q-38 -11 -53 21l-17 49q-1 37 22 54z" />
    <glyph glyph-name="Adieresis" unicode="&#xc4;" horiz-adv-x="740" 
d="M102 248l68 246h-38q-38 0 -38 36v176q0 36 38 36h476q38 0 38 -36v-176q0 -36 -38 -36h-38l68 -246h38q38 0 38 -36v-176q0 -36 -38 -36h-212q-38 0 -38 36v176q0 36 38 36h38l-9 34h-246l-9 -34h38q38 0 38 -36v-176q0 -36 -38 -36h-212q-38 0 -38 36v176q0 36 38 36
h38zM434 494h-128l-21 -76h170zM116 893q0 46 30.5 77.5t73.5 31.5t73.5 -31.5t30.5 -77.5t-30.5 -77.5t-73.5 -31.5t-73.5 31.5t-30.5 77.5zM422 893q0 46 30.5 77.5t73.5 31.5t73.5 -31.5t30.5 -77.5t-30.5 -77.5t-73.5 -31.5t-73.5 31.5t-30.5 77.5z" />
    <glyph glyph-name="Aring" unicode="&#xc5;" horiz-adv-x="740" 
d="M102 248l68 246h-38q-38 0 -38 36v176q0 36 38 36h476q38 0 38 -36v-176q0 -36 -38 -36h-38l68 -246h38q38 0 38 -36v-176q0 -36 -38 -36h-212q-38 0 -38 36v176q0 36 38 36h38l-9 34h-246l-9 -34h38q38 0 38 -36v-176q0 -36 -38 -36h-212q-38 0 -38 36v176q0 36 38 36
h38zM434 494h-128l-21 -76h170zM414 1002q76 0 76 -80v-58q0 -80 -76 -80h-82q-76 0 -76 80v58q0 80 76 80h82zM387 932h-28q-28 0 -28 -28v-21q0 -29 28 -29h28q28 0 28 29v21q0 28 -28 28z" />
    <glyph glyph-name="AE" unicode="&#xc6;" horiz-adv-x="1018" 
d="M102 248l68 246h-38q-38 0 -38 36v176q0 36 38 36h810q38 0 38 -36v-246q-3 -38 -38 -36h-60q-35 -2 -38 36v34h-206v-56h128q38 0 38 -36v-62q0 -36 -38 -36h-128v-56h206v34q3 38 38 36h60q35 2 38 -36v-246q0 -36 -38 -36h-478q-38 0 -38 36v176q0 36 38 36h38v54
h-249l-15 -54h38q38 0 38 -36v-176q0 -36 -38 -36h-212q-38 0 -38 36v176q0 36 38 36h38zM306 494l-15 -56h211v56h-196z" />
    <glyph glyph-name="Ccedilla" unicode="&#xc7;" horiz-adv-x="612" 
d="M76 0q-38 0 -38 36v670q0 36 38 36h276q57 -2 86 -64v28q3 38 38 36h60q35 2 38 -36v-246q-3 -38 -38 -36h-60q-35 -2 -38 36v34h-266v-246h266v34q3 38 38 36h60q35 2 38 -36v-246q0 -36 -38 -36h-143v-191q-1 -38 -37 -37h-184q-36 1 -35 39v90q1 38 39 37h48v62h-148z
" />
    <glyph glyph-name="Egrave" unicode="&#xc8;" horiz-adv-x="688" 
d="M114 494h-38q-38 0 -38 36v176q0 36 38 36h536q38 0 38 -36v-246q-3 -38 -38 -36h-60q-35 -2 -38 36v34h-264v-56h186q38 0 38 -36v-62q0 -36 -38 -36h-186v-56h264v34q3 38 38 36h60q35 2 38 -36v-246q0 -36 -38 -36h-536q-38 0 -38 36v176q0 36 38 36h38v246zM180 998
l350 -89q37 -9 27 -44l-16 -64q-9 -35 -45 -25l-350 89q-37 9 -27 44l16 64q9 35 45 25z" />
    <glyph glyph-name="Eacute" unicode="&#xc9;" horiz-adv-x="688" 
d="M114 494h-38q-38 0 -38 36v176q0 36 38 36h536q38 0 38 -36v-246q-3 -38 -38 -36h-60q-35 -2 -38 36v34h-264v-56h186q38 0 38 -36v-62q0 -36 -38 -36h-186v-56h264v34q3 38 38 36h60q35 2 38 -36v-246q0 -36 -38 -36h-536q-38 0 -38 36v176q0 36 38 36h38v246zM496 998
q36 10 45 -25l16 -64q10 -35 -27 -44l-350 -89q-36 -10 -45 25l-16 64q-10 35 27 44z" />
    <glyph glyph-name="Ecircumflex" unicode="&#xca;" horiz-adv-x="688" 
d="M302 998q35 12 74 0l148 -94q23 -17 22 -54l-17 -49q-15 -32 -53 -21l-137 86l-137 -86q-38 -11 -53 21l-17 49q-1 37 22 54zM114 494h-38q-38 0 -38 36v176q0 36 38 36h536q38 0 38 -36v-246q-3 -38 -38 -36h-60q-35 -2 -38 36v34h-264v-56h186q38 0 38 -36v-62
q0 -36 -38 -36h-186v-56h264v34q3 38 38 36h60q35 2 38 -36v-246q0 -36 -38 -36h-536q-38 0 -38 36v176q0 36 38 36h38v246z" />
    <glyph glyph-name="Edieresis" unicode="&#xcb;" horiz-adv-x="688" 
d="M114 494h-38q-38 0 -38 36v176q0 36 38 36h536q38 0 38 -36v-246q-3 -38 -38 -36h-60q-35 -2 -38 36v34h-264v-56h186q38 0 38 -36v-62q0 -36 -38 -36h-186v-56h264v34q3 38 38 36h60q35 2 38 -36v-246q0 -36 -38 -36h-536q-38 0 -38 36v176q0 36 38 36h38v246zM82 893
q0 46 30.5 77.5t73.5 31.5t73.5 -31.5t30.5 -77.5t-30.5 -77.5t-73.5 -31.5t-73.5 31.5t-30.5 77.5zM388 893q0 46 30.5 77.5t73.5 31.5t73.5 -31.5t30.5 -77.5t-30.5 -77.5t-73.5 -31.5t-73.5 31.5t-30.5 77.5z" />
    <glyph glyph-name="Igrave" unicode="&#xcc;" horiz-adv-x="364" 
d="M113 494h-38q-38 0 -38 36v176q0 36 38 36h212q38 0 38 -36v-176q0 -36 -38 -36h-38v-246h38q38 0 38 -36v-176q0 -36 -38 -36h-212q-38 0 -38 36v176q0 36 38 36h38v246zM103 998l190 -91q37 -15 27 -44l-16 -64q-9 -35 -45 -25l-190 91q-35 10 -27 44l16 64q9 35 45 25
z" />
    <glyph glyph-name="Iacute" unicode="&#xcd;" horiz-adv-x="364" 
d="M113 494h-38q-38 0 -38 36v176q0 36 38 36h212q38 0 38 -36v-176q0 -36 -38 -36h-38v-246h38q38 0 38 -36v-176q0 -36 -38 -36h-212q-38 0 -38 36v176q0 36 38 36h38v246zM261 998q36 10 45 -25l16 -64q8 -34 -27 -44l-190 -91q-36 -10 -45 25l-16 64q-10 29 27 44z" />
    <glyph glyph-name="Icircumflex" unicode="&#xce;" horiz-adv-x="364" 
d="M114 494h-38q-38 0 -38 36v176q0 36 38 36h212q38 0 38 -36v-176q0 -36 -38 -36h-38v-246h38q38 0 38 -36v-176q0 -36 -38 -36h-212q-38 0 -38 36v176q0 36 38 36h38v246zM77 784q-38 -11 -53 21l-17 49q-1 37 22 54l116 94q38 12 74 0l116 -94q23 -17 22 -54l-17 -49
q-15 -32 -53 -21l-105 86z" />
    <glyph glyph-name="Idieresis" unicode="&#xcf;" horiz-adv-x="366" 
d="M114 494h-38q-38 0 -38 36v176q0 36 38 36h212q38 0 38 -36v-176q0 -36 -38 -36h-38v-246h38q38 0 38 -36v-176q0 -36 -38 -36h-212q-38 0 -38 36v176q0 36 38 36h38v246zM-46 893q0 46 30.5 77.5t73.5 31.5t73.5 -31.5t30.5 -77.5t-30.5 -77.5t-73.5 -31.5t-73.5 31.5
t-30.5 77.5zM204 893q0 46 30.5 77.5t73.5 31.5t73.5 -31.5t30.5 -77.5t-30.5 -77.5t-73.5 -31.5t-73.5 31.5t-30.5 77.5z" />
    <glyph glyph-name="Eth" unicode="&#xd0;" horiz-adv-x="688" 
d="M76 0q-38 0 -38 36v176q0 36 38 36h38v38h-38q-38 0 -38 36v98q0 36 38 36h38v38h-38q-38 0 -38 36v176q0 36 38 36h488q51 -2 68.5 -40.5t17.5 -101.5v-458q0 -63 -17.5 -101.5t-68.5 -40.5h-488zM250 494v-38h42q38 0 38 -36v-98q0 -36 -38 -36h-42v-38h242q24 1 24 38
v170q0 37 -24 38h-242z" />
    <glyph glyph-name="Ntilde" unicode="&#xd1;" horiz-adv-x="764" 
d="M284 714l230 -442v222h-38q-38 0 -38 36v176q0 36 38 36h212q38 0 38 -36v-176q0 -36 -38 -36h-38v-246h38q38 0 38 -36v-176q0 -36 -38 -36h-166q-31 2 -42 28l-230 442v-222h38q38 0 38 -36v-176q0 -36 -38 -36h-212q-38 0 -38 36v176q0 36 38 36h38v246h-38
q-38 0 -38 36v176q0 36 38 36h166q31 -2 42 -28zM278 994q40 17 78 0l86 -77l88 81q38 11 53 -21l17 -49q1 -37 -22 -54l-100 -90q-33 -15 -74 0l-89 78l-85 -78q-38 -11 -53 21l-17 49q-1 37 22 54z" />
    <glyph glyph-name="Ograve" unicode="&#xd2;" horiz-adv-x="612" 
d="M38 706q0 36 38 36h460q38 0 38 -36v-670q0 -36 -38 -36h-460q-38 0 -38 36v670zM172 494v-246h268v246h-268zM146 996l350 -89q37 -9 27 -44l-16 -64q-9 -35 -45 -25l-350 89q-37 9 -27 44l16 64q9 35 45 25z" />
    <glyph glyph-name="Oacute" unicode="&#xd3;" horiz-adv-x="612" 
d="M38 706q0 36 38 36h460q38 0 38 -36v-670q0 -36 -38 -36h-460q-38 0 -38 36v670zM172 494v-246h268v246h-268zM462 996q36 10 45 -25l16 -64q10 -35 -27 -44l-350 -89q-36 -10 -45 25l-16 64q-10 35 27 44z" />
    <glyph glyph-name="Ocircumflex" unicode="&#xd4;" horiz-adv-x="612" 
d="M38 706q0 36 38 36h460q38 0 38 -36v-670q0 -36 -38 -36h-460q-38 0 -38 36v670zM172 494v-246h268v246h-268zM266 998q35 12 74 0l148 -94q23 -17 22 -54l-17 -49q-15 -32 -53 -21l-137 86l-137 -86q-38 -11 -53 21l-17 49q-1 37 22 54z" />
    <glyph glyph-name="Otilde" unicode="&#xd5;" horiz-adv-x="612" 
d="M38 706q0 36 38 36h460q38 0 38 -36v-670q0 -36 -38 -36h-460q-38 0 -38 36v670zM172 494v-246h268v246h-268zM202 996q40 17 78 0l86 -77l88 81q38 11 53 -21l17 -49q1 -37 -22 -54l-100 -90q-33 -15 -74 0l-89 78l-85 -78q-38 -11 -53 21l-17 49q-1 37 22 54z" />
    <glyph glyph-name="Odieresis" unicode="&#xd6;" horiz-adv-x="612" 
d="M38 706q0 36 38 36h460q38 0 38 -36v-670q0 -36 -38 -36h-460q-38 0 -38 36v670zM172 494v-246h268v246h-268zM48 893q0 46 30.5 77.5t73.5 31.5t73.5 -31.5t30.5 -77.5t-30.5 -77.5t-73.5 -31.5t-73.5 31.5t-30.5 77.5zM354 893q0 46 30.5 77.5t73.5 31.5t73.5 -31.5
t30.5 -77.5t-30.5 -77.5t-73.5 -31.5t-73.5 31.5t-30.5 77.5z" />
    <glyph glyph-name="multiply" unicode="&#xd7;" horiz-adv-x="517" 
d="M445 302q27 -27 1 -52l-70 -69q-26 -25 -52 2l-67 68l-68 -69q-28 -26 -53 0l-67 72q-25 26 3 52l66 66l-67 68q-27 27 -1 52l70 69q26 25 52 -2l67 -68l70 68q28 25 52 -1l67 -71q25 -26 -3 -52l-67 -65z" />
    <glyph glyph-name="Oslash" unicode="&#xd8;" horiz-adv-x="612" 
d="M38 706q0 36 38 36h229l12 60q3 36 41 33l72 -8q37 -3 34 -39l-9 -46h81q38 0 38 -36v-670q0 -36 -38 -36h-230l-11 -56q-3 -36 -41 -33l-72 8q-37 3 -34 39l8 42h-80q-38 0 -38 36v670zM172 494v-246h34l49 246h-83zM440 248v246h-35l-49 -246h84z" />
    <glyph glyph-name="Ugrave" unicode="&#xd9;" horiz-adv-x="762" 
d="M156 0q-44 0 -44 40v454h-38q-38 0 -38 36v176q0 36 38 36h212q38 0 38 -36v-176q0 -36 -38 -36h-38v-246h266v246h-38q-38 0 -38 36v176q0 36 38 36h212q38 0 38 -36v-176q0 -36 -38 -36h-38v-454q0 -40 -40 -40h-454zM220 998l350 -89q37 -9 27 -44l-16 -64
q-9 -35 -45 -25l-350 89q-37 9 -27 44l16 64q9 35 45 25z" />
    <glyph glyph-name="Uacute" unicode="&#xda;" horiz-adv-x="762" 
d="M156 0q-44 0 -44 40v454h-38q-38 0 -38 36v176q0 36 38 36h212q38 0 38 -36v-176q0 -36 -38 -36h-38v-246h266v246h-38q-38 0 -38 36v176q0 36 38 36h212q38 0 38 -36v-176q0 -36 -38 -36h-38v-454q0 -40 -40 -40h-454zM536 998q36 10 45 -25l16 -64q10 -35 -27 -44
l-350 -89q-36 -10 -45 25l-16 64q-10 35 27 44z" />
    <glyph glyph-name="Ucircumflex" unicode="&#xdb;" horiz-adv-x="762" 
d="M156 0q-44 0 -44 40v454h-38q-38 0 -38 36v176q0 36 38 36h212q38 0 38 -36v-176q0 -36 -38 -36h-38v-246h266v246h-38q-38 0 -38 36v176q0 36 38 36h212q38 0 38 -36v-176q0 -36 -38 -36h-38v-454q0 -40 -40 -40h-454zM340 998q35 12 74 0l148 -94q23 -17 22 -54
l-17 -49q-15 -32 -53 -21l-137 86l-137 -86q-38 -11 -53 21l-17 49q-1 37 22 54z" />
    <glyph glyph-name="Udieresis" unicode="&#xdc;" horiz-adv-x="762" 
d="M156 0q-44 0 -44 40v454h-38q-38 0 -38 36v176q0 36 38 36h212q38 0 38 -36v-176q0 -36 -38 -36h-38v-246h266v246h-38q-38 0 -38 36v176q0 36 38 36h212q38 0 38 -36v-176q0 -36 -38 -36h-38v-454q0 -40 -40 -40h-454zM122 893q0 46 30.5 77.5t73.5 31.5t73.5 -31.5
t30.5 -77.5t-30.5 -77.5t-73.5 -31.5t-73.5 31.5t-30.5 77.5zM428 893q0 46 30.5 77.5t73.5 31.5t73.5 -31.5t30.5 -77.5t-30.5 -77.5t-73.5 -31.5t-73.5 31.5t-30.5 77.5z" />
    <glyph glyph-name="Yacute" unicode="&#xdd;" horiz-adv-x="736" 
d="M109 494h-47q-38 0 -38 36v176q0 36 38 36h212q38 0 38 -36v-176q0 -36 -38 -36h-35l29 -56h200l29 56h-35q-38 0 -38 36v176q0 36 38 36h212q38 0 38 -36v-176q0 -36 -38 -36h-47l-83 -162q-12 -24 -36 -30h-72v-54h38q38 0 38 -36v-176q0 -36 -38 -36h-212
q-38 0 -38 36v176q0 36 38 36h38v54h-72q-24 6 -36 30zM526 998q36 10 45 -25l16 -64q10 -35 -27 -44l-350 -89q-36 -10 -45 25l-16 64q-10 35 27 44z" />
    <glyph glyph-name="Thorn" unicode="&#xde;" 
 />
    <glyph glyph-name="germandbls" unicode="&#xdf;" horiz-adv-x="625" 
d="M70 -46q-38 0 -36 40l14 640q-2 108 102 108h394q38 0 38 -36v-176q5 -26 -74 -160q79 -132 74 -159v-175q0 -36 -38 -36h-258q-35 -2 -38 36v176q0 36 38 36h162l-28 54h-248l-6 -312q-2 -36 -42 -36h-54zM448 494h-234q-32 0 -38 -28l-2 -28h246z" />
    <glyph glyph-name="agrave" unicode="&#xe0;" horiz-adv-x="740" 
d="M102 248l68 246h-38q-38 0 -38 36v176q0 36 38 36h476q38 0 38 -36v-176q0 -36 -38 -36h-38l68 -246h38q38 0 38 -36v-176q0 -36 -38 -36h-212q-38 0 -38 36v176q0 36 38 36h38l-9 34h-246l-9 -34h38q38 0 38 -36v-176q0 -36 -38 -36h-212q-38 0 -38 36v176q0 36 38 36
h38zM434 494h-128l-21 -76h170zM214 996l350 -89q37 -9 27 -44l-16 -64q-9 -35 -45 -25l-350 89q-37 9 -27 44l16 64q9 35 45 25z" />
    <glyph glyph-name="aacute" unicode="&#xe1;" horiz-adv-x="740" 
d="M102 248l68 246h-38q-38 0 -38 36v176q0 36 38 36h476q38 0 38 -36v-176q0 -36 -38 -36h-38l68 -246h38q38 0 38 -36v-176q0 -36 -38 -36h-212q-38 0 -38 36v176q0 36 38 36h38l-9 34h-246l-9 -34h38q38 0 38 -36v-176q0 -36 -38 -36h-212q-38 0 -38 36v176q0 36 38 36
h38zM434 494h-128l-21 -76h170zM530 996q36 10 45 -25l16 -64q10 -35 -27 -44l-350 -89q-36 -10 -45 25l-16 64q-10 35 27 44z" />
    <glyph glyph-name="acircumflex" unicode="&#xe2;" horiz-adv-x="740" 
d="M102 248l68 246h-38q-38 0 -38 36v176q0 36 38 36h476q38 0 38 -36v-176q0 -36 -38 -36h-38l68 -246h38q38 0 38 -36v-176q0 -36 -38 -36h-212q-38 0 -38 36v176q0 36 38 36h38l-9 34h-246l-9 -34h38q38 0 38 -36v-176q0 -36 -38 -36h-212q-38 0 -38 36v176q0 36 38 36
h38zM434 494h-128l-21 -76h170zM332 998q35 12 74 0l148 -94q23 -17 22 -54l-17 -49q-15 -32 -53 -21l-137 86l-137 -86q-38 -11 -53 21l-17 49q-1 37 22 54z" />
    <glyph glyph-name="atilde" unicode="&#xe3;" horiz-adv-x="740" 
d="M102 248l68 246h-38q-38 0 -38 36v176q0 36 38 36h476q38 0 38 -36v-176q0 -36 -38 -36h-38l68 -246h38q38 0 38 -36v-176q0 -36 -38 -36h-212q-38 0 -38 36v176q0 36 38 36h38l-9 34h-246l-9 -34h38q38 0 38 -36v-176q0 -36 -38 -36h-212q-38 0 -38 36v176q0 36 38 36
h38zM434 494h-128l-21 -76h170zM270 994q40 17 78 0l86 -77l88 81q38 11 53 -21l17 -49q1 -37 -22 -54l-100 -90q-33 -15 -74 0l-89 78l-85 -78q-38 -11 -53 21l-17 49q-1 37 22 54z" />
    <glyph glyph-name="adieresis" unicode="&#xe4;" horiz-adv-x="740" 
d="M102 248l68 246h-38q-38 0 -38 36v176q0 36 38 36h476q38 0 38 -36v-176q0 -36 -38 -36h-38l68 -246h38q38 0 38 -36v-176q0 -36 -38 -36h-212q-38 0 -38 36v176q0 36 38 36h38l-9 34h-246l-9 -34h38q38 0 38 -36v-176q0 -36 -38 -36h-212q-38 0 -38 36v176q0 36 38 36
h38zM434 494h-128l-21 -76h170zM116 893q0 46 30.5 77.5t73.5 31.5t73.5 -31.5t30.5 -77.5t-30.5 -77.5t-73.5 -31.5t-73.5 31.5t-30.5 77.5zM422 893q0 46 30.5 77.5t73.5 31.5t73.5 -31.5t30.5 -77.5t-30.5 -77.5t-73.5 -31.5t-73.5 31.5t-30.5 77.5z" />
    <glyph glyph-name="aring" unicode="&#xe5;" horiz-adv-x="740" 
d="M102 248l68 246h-38q-38 0 -38 36v176q0 36 38 36h476q38 0 38 -36v-176q0 -36 -38 -36h-38l68 -246h38q38 0 38 -36v-176q0 -36 -38 -36h-212q-38 0 -38 36v176q0 36 38 36h38l-9 34h-246l-9 -34h38q38 0 38 -36v-176q0 -36 -38 -36h-212q-38 0 -38 36v176q0 36 38 36
h38zM434 494h-128l-21 -76h170zM414 1002q76 0 76 -80v-58q0 -80 -76 -80h-82q-76 0 -76 80v58q0 80 76 80h82zM387 932h-28q-28 0 -28 -28v-21q0 -29 28 -29h28q28 0 28 29v21q0 28 -28 28z" />
    <glyph glyph-name="ae" unicode="&#xe6;" horiz-adv-x="1018" 
d="M102 248l68 246h-38q-38 0 -38 36v176q0 36 38 36h810q38 0 38 -36v-246q-3 -38 -38 -36h-60q-35 -2 -38 36v34h-206v-56h128q38 0 38 -36v-62q0 -36 -38 -36h-128v-56h206v34q3 38 38 36h60q35 2 38 -36v-246q0 -36 -38 -36h-478q-38 0 -38 36v176q0 36 38 36h38v54
h-249l-15 -54h38q38 0 38 -36v-176q0 -36 -38 -36h-212q-38 0 -38 36v176q0 36 38 36h38zM306 494l-15 -56h211v56h-196z" />
    <glyph glyph-name="ccedilla" unicode="&#xe7;" horiz-adv-x="612" 
d="M76 0q-38 0 -38 36v670q0 36 38 36h276q57 -2 86 -64v28q3 38 38 36h60q35 2 38 -36v-246q-3 -38 -38 -36h-60q-35 -2 -38 36v34h-266v-246h266v34q3 38 38 36h60q35 2 38 -36v-246q0 -36 -38 -36h-143v-191q-1 -38 -37 -37h-184q-36 1 -35 39v90q1 38 39 37h48v62h-148z
" />
    <glyph glyph-name="egrave" unicode="&#xe8;" horiz-adv-x="688" 
d="M114 494h-38q-38 0 -38 36v176q0 36 38 36h536q38 0 38 -36v-246q-3 -38 -38 -36h-60q-35 -2 -38 36v34h-264v-56h186q38 0 38 -36v-62q0 -36 -38 -36h-186v-56h264v34q3 38 38 36h60q35 2 38 -36v-246q0 -36 -38 -36h-536q-38 0 -38 36v176q0 36 38 36h38v246zM180 998
l350 -89q37 -9 27 -44l-16 -64q-9 -35 -45 -25l-350 89q-37 9 -27 44l16 64q9 35 45 25z" />
    <glyph glyph-name="eacute" unicode="&#xe9;" horiz-adv-x="688" 
d="M114 494h-38q-38 0 -38 36v176q0 36 38 36h536q38 0 38 -36v-246q-3 -38 -38 -36h-60q-35 -2 -38 36v34h-264v-56h186q38 0 38 -36v-62q0 -36 -38 -36h-186v-56h264v34q3 38 38 36h60q35 2 38 -36v-246q0 -36 -38 -36h-536q-38 0 -38 36v176q0 36 38 36h38v246zM496 998
q36 10 45 -25l16 -64q10 -35 -27 -44l-350 -89q-36 -10 -45 25l-16 64q-10 35 27 44z" />
    <glyph glyph-name="ecircumflex" unicode="&#xea;" horiz-adv-x="688" 
d="M302 998q35 12 74 0l148 -94q23 -17 22 -54l-17 -49q-15 -32 -53 -21l-137 86l-137 -86q-38 -11 -53 21l-17 49q-1 37 22 54zM114 494h-38q-38 0 -38 36v176q0 36 38 36h536q38 0 38 -36v-246q-3 -38 -38 -36h-60q-35 -2 -38 36v34h-264v-56h186q38 0 38 -36v-62
q0 -36 -38 -36h-186v-56h264v34q3 38 38 36h60q35 2 38 -36v-246q0 -36 -38 -36h-536q-38 0 -38 36v176q0 36 38 36h38v246z" />
    <glyph glyph-name="edieresis" unicode="&#xeb;" horiz-adv-x="688" 
d="M114 494h-38q-38 0 -38 36v176q0 36 38 36h536q38 0 38 -36v-246q-3 -38 -38 -36h-60q-35 -2 -38 36v34h-264v-56h186q38 0 38 -36v-62q0 -36 -38 -36h-186v-56h264v34q3 38 38 36h60q35 2 38 -36v-246q0 -36 -38 -36h-536q-38 0 -38 36v176q0 36 38 36h38v246zM82 893
q0 46 30.5 77.5t73.5 31.5t73.5 -31.5t30.5 -77.5t-30.5 -77.5t-73.5 -31.5t-73.5 31.5t-30.5 77.5zM388 893q0 46 30.5 77.5t73.5 31.5t73.5 -31.5t30.5 -77.5t-30.5 -77.5t-73.5 -31.5t-73.5 31.5t-30.5 77.5z" />
    <glyph glyph-name="igrave" unicode="&#xec;" horiz-adv-x="364" 
d="M113 494h-38q-38 0 -38 36v176q0 36 38 36h212q38 0 38 -36v-176q0 -36 -38 -36h-38v-246h38q38 0 38 -36v-176q0 -36 -38 -36h-212q-38 0 -38 36v176q0 36 38 36h38v246zM103 998l190 -91q37 -15 27 -44l-16 -64q-9 -35 -45 -25l-190 91q-35 10 -27 44l16 64q9 35 45 25
z" />
    <glyph glyph-name="iacute" unicode="&#xed;" horiz-adv-x="364" 
d="M113 494h-38q-38 0 -38 36v176q0 36 38 36h212q38 0 38 -36v-176q0 -36 -38 -36h-38v-246h38q38 0 38 -36v-176q0 -36 -38 -36h-212q-38 0 -38 36v176q0 36 38 36h38v246zM261 998q36 10 45 -25l16 -64q8 -34 -27 -44l-190 -91q-36 -10 -45 25l-16 64q-10 29 27 44z" />
    <glyph glyph-name="icircumflex" unicode="&#xee;" horiz-adv-x="364" 
d="M114 494h-38q-38 0 -38 36v176q0 36 38 36h212q38 0 38 -36v-176q0 -36 -38 -36h-38v-246h38q38 0 38 -36v-176q0 -36 -38 -36h-212q-38 0 -38 36v176q0 36 38 36h38v246zM77 784q-38 -11 -53 21l-17 49q-1 37 22 54l116 94q38 12 74 0l116 -94q23 -17 22 -54l-17 -49
q-15 -32 -53 -21l-105 86z" />
    <glyph glyph-name="idieresis" unicode="&#xef;" horiz-adv-x="366" 
d="M114 494h-38q-38 0 -38 36v176q0 36 38 36h212q38 0 38 -36v-176q0 -36 -38 -36h-38v-246h38q38 0 38 -36v-176q0 -36 -38 -36h-212q-38 0 -38 36v176q0 36 38 36h38v246zM-46 893q0 46 30.5 77.5t73.5 31.5t73.5 -31.5t30.5 -77.5t-30.5 -77.5t-73.5 -31.5t-73.5 31.5
t-30.5 77.5zM204 893q0 46 30.5 77.5t73.5 31.5t73.5 -31.5t30.5 -77.5t-30.5 -77.5t-73.5 -31.5t-73.5 31.5t-30.5 77.5z" />
    <glyph glyph-name="eth" unicode="&#xf0;" 
 />
    <glyph glyph-name="ntilde" unicode="&#xf1;" horiz-adv-x="764" 
d="M284 714l230 -442v222h-38q-38 0 -38 36v176q0 36 38 36h212q38 0 38 -36v-176q0 -36 -38 -36h-38v-246h38q38 0 38 -36v-176q0 -36 -38 -36h-166q-31 2 -42 28l-230 442v-222h38q38 0 38 -36v-176q0 -36 -38 -36h-212q-38 0 -38 36v176q0 36 38 36h38v246h-38
q-38 0 -38 36v176q0 36 38 36h166q31 -2 42 -28zM278 994q40 17 78 0l86 -77l88 81q38 11 53 -21l17 -49q1 -37 -22 -54l-100 -90q-33 -15 -74 0l-89 78l-85 -78q-38 -11 -53 21l-17 49q-1 37 22 54z" />
    <glyph glyph-name="ograve" unicode="&#xf2;" horiz-adv-x="612" 
d="M38 706q0 36 38 36h460q38 0 38 -36v-670q0 -36 -38 -36h-460q-38 0 -38 36v670zM172 494v-246h268v246h-268zM146 996l350 -89q37 -9 27 -44l-16 -64q-9 -35 -45 -25l-350 89q-37 9 -27 44l16 64q9 35 45 25z" />
    <glyph glyph-name="oacute" unicode="&#xf3;" horiz-adv-x="612" 
d="M38 706q0 36 38 36h460q38 0 38 -36v-670q0 -36 -38 -36h-460q-38 0 -38 36v670zM172 494v-246h268v246h-268zM462 996q36 10 45 -25l16 -64q10 -35 -27 -44l-350 -89q-36 -10 -45 25l-16 64q-10 35 27 44z" />
    <glyph glyph-name="ocircumflex" unicode="&#xf4;" horiz-adv-x="612" 
d="M38 706q0 36 38 36h460q38 0 38 -36v-670q0 -36 -38 -36h-460q-38 0 -38 36v670zM172 494v-246h268v246h-268zM266 998q35 12 74 0l148 -94q23 -17 22 -54l-17 -49q-15 -32 -53 -21l-137 86l-137 -86q-38 -11 -53 21l-17 49q-1 37 22 54z" />
    <glyph glyph-name="otilde" unicode="&#xf5;" horiz-adv-x="608" 
d="M36 706q0 36 38 36h460q38 0 38 -36v-670q0 -36 -38 -36h-460q-38 0 -38 36v670zM170 494v-246h268v246h-268zM200 996q40 17 78 0l86 -77l88 81q38 11 53 -21l17 -49q1 -37 -22 -54l-100 -90q-33 -15 -74 0l-89 78l-85 -78q-38 -11 -53 21l-17 49q-1 37 22 54z" />
    <glyph glyph-name="odieresis" unicode="&#xf6;" horiz-adv-x="612" 
d="M38 706q0 36 38 36h460q38 0 38 -36v-670q0 -36 -38 -36h-460q-38 0 -38 36v670zM172 494v-246h268v246h-268zM48 893q0 46 30.5 77.5t73.5 31.5t73.5 -31.5t30.5 -77.5t-30.5 -77.5t-73.5 -31.5t-73.5 31.5t-30.5 77.5zM354 893q0 46 30.5 77.5t73.5 31.5t73.5 -31.5
t30.5 -77.5t-30.5 -77.5t-73.5 -31.5t-73.5 31.5t-30.5 77.5z" />
    <glyph glyph-name="divide" unicode="&#xf7;" horiz-adv-x="524" 
d="M442 456q38 0 38 -36v-98q0 -36 -38 -36h-360q-38 0 -38 36v98q0 36 38 36h360zM291 672q59 0 59 -62v-46q0 -62 -59 -62h-64q-59 0 -59 62v46q0 62 59 62h64zM291 70h-64q-59 0 -59 62v46q0 62 59 62h64q59 0 59 -62v-46q0 -62 -59 -62z" />
    <glyph glyph-name="oslash" unicode="&#xf8;" horiz-adv-x="612" 
d="M38 706q0 36 38 36h229l12 60q3 36 41 33l72 -8q37 -3 34 -39l-9 -46h81q38 0 38 -36v-670q0 -36 -38 -36h-230l-11 -56q-3 -36 -41 -33l-72 8q-37 3 -34 39l8 42h-80q-38 0 -38 36v670zM172 494v-246h34l49 246h-83zM440 248v246h-35l-49 -246h84z" />
    <glyph glyph-name="ugrave" unicode="&#xf9;" horiz-adv-x="762" 
d="M156 0q-44 0 -44 40v454h-38q-38 0 -38 36v176q0 36 38 36h212q38 0 38 -36v-176q0 -36 -38 -36h-38v-246h266v246h-38q-38 0 -38 36v176q0 36 38 36h212q38 0 38 -36v-176q0 -36 -38 -36h-38v-454q0 -40 -40 -40h-454zM220 998l350 -89q37 -9 27 -44l-16 -64
q-9 -35 -45 -25l-350 89q-37 9 -27 44l16 64q9 35 45 25z" />
    <glyph glyph-name="uacute" unicode="&#xfa;" horiz-adv-x="762" 
d="M156 0q-44 0 -44 40v454h-38q-38 0 -38 36v176q0 36 38 36h212q38 0 38 -36v-176q0 -36 -38 -36h-38v-246h266v246h-38q-38 0 -38 36v176q0 36 38 36h212q38 0 38 -36v-176q0 -36 -38 -36h-38v-454q0 -40 -40 -40h-454zM536 998q36 10 45 -25l16 -64q10 -35 -27 -44
l-350 -89q-36 -10 -45 25l-16 64q-10 35 27 44z" />
    <glyph glyph-name="ucircumflex" unicode="&#xfb;" horiz-adv-x="762" 
d="M156 0q-44 0 -44 40v454h-38q-38 0 -38 36v176q0 36 38 36h212q38 0 38 -36v-176q0 -36 -38 -36h-38v-246h266v246h-38q-38 0 -38 36v176q0 36 38 36h212q38 0 38 -36v-176q0 -36 -38 -36h-38v-454q0 -40 -40 -40h-454zM340 998q35 12 74 0l148 -94q23 -17 22 -54
l-17 -49q-15 -32 -53 -21l-137 86l-137 -86q-38 -11 -53 21l-17 49q-1 37 22 54z" />
    <glyph glyph-name="udieresis" unicode="&#xfc;" horiz-adv-x="762" 
d="M156 0q-44 0 -44 40v454h-38q-38 0 -38 36v176q0 36 38 36h212q38 0 38 -36v-176q0 -36 -38 -36h-38v-246h266v246h-38q-38 0 -38 36v176q0 36 38 36h212q38 0 38 -36v-176q0 -36 -38 -36h-38v-454q0 -40 -40 -40h-454zM122 893q0 46 30.5 77.5t73.5 31.5t73.5 -31.5
t30.5 -77.5t-30.5 -77.5t-73.5 -31.5t-73.5 31.5t-30.5 77.5zM428 893q0 46 30.5 77.5t73.5 31.5t73.5 -31.5t30.5 -77.5t-30.5 -77.5t-73.5 -31.5t-73.5 31.5t-30.5 77.5z" />
    <glyph glyph-name="yacute" unicode="&#xfd;" horiz-adv-x="736" 
d="M109 494h-47q-38 0 -38 36v176q0 36 38 36h212q38 0 38 -36v-176q0 -36 -38 -36h-35l29 -56h200l29 56h-35q-38 0 -38 36v176q0 36 38 36h212q38 0 38 -36v-176q0 -36 -38 -36h-47l-83 -162q-12 -24 -36 -30h-72v-54h38q38 0 38 -36v-176q0 -36 -38 -36h-212
q-38 0 -38 36v176q0 36 38 36h38v54h-72q-24 6 -36 30zM526 998q36 10 45 -25l16 -64q10 -35 -27 -44l-350 -89q-36 -10 -45 25l-16 64q-10 35 27 44z" />
    <glyph glyph-name="thorn" unicode="&#xfe;" 
 />
    <glyph glyph-name="ydieresis" unicode="&#xff;" horiz-adv-x="736" 
d="M109 494h-47q-38 0 -38 36v176q0 36 38 36h212q38 0 38 -36v-176q0 -36 -38 -36h-35l29 -56h200l29 56h-35q-38 0 -38 36v176q0 36 38 36h212q38 0 38 -36v-176q0 -36 -38 -36h-47l-83 -162q-12 -24 -36 -30h-72v-54h38q38 0 38 -36v-176q0 -36 -38 -36h-212
q-38 0 -38 36v176q0 36 38 36h38v54h-72q-24 6 -36 30zM112 893q0 46 30.5 77.5t73.5 31.5t73.5 -31.5t30.5 -77.5t-30.5 -77.5t-73.5 -31.5t-73.5 31.5t-30.5 77.5zM418 893q0 46 30.5 77.5t73.5 31.5t73.5 -31.5t30.5 -77.5t-30.5 -77.5t-73.5 -31.5t-73.5 31.5
t-30.5 77.5z" />
    <glyph glyph-name="OE" unicode="&#x152;" horiz-adv-x="874" 
d="M76 0q-38 0 -38 36v670q0 36 38 36h214q57 -2 86 -64v28q3 38 38 36h384q38 0 38 -36v-246q-3 -38 -38 -36h-60q-35 -2 -38 36v34h-188v-56h110q38 0 38 -36v-62q0 -36 -38 -36h-110v-56h188v34q3 38 38 36h60q35 2 38 -36v-246q0 -36 -38 -36h-722zM172 494v-246h204
v246h-204z" />
    <glyph glyph-name="oe" unicode="&#x153;" horiz-adv-x="874" 
d="M76 0q-38 0 -38 36v670q0 36 38 36h214q57 -2 86 -64v28q3 38 38 36h384q38 0 38 -36v-246q-3 -38 -38 -36h-60q-35 -2 -38 36v34h-188v-56h110q38 0 38 -36v-62q0 -36 -38 -36h-110v-56h188v34q3 38 38 36h60q35 2 38 -36v-246q0 -36 -38 -36h-722zM172 494v-246h204
v246h-204z" />
    <glyph glyph-name="Scaron" unicode="&#x160;" horiz-adv-x="612" 
d="M38 466v238q0 38 38 38h276q57 -2 86 -64v28q3 38 38 36h60q35 2 38 -36v-246q-3 -38 -38 -36h-60q-35 -2 -38 36v34h-230l334 -172q25 -12 32 -46v-238q0 -38 -38 -38h-276q-57 2 -86 64v-28q-3 -38 -38 -36h-60q-35 -2 -38 36v246q3 38 38 36h60q35 2 38 -36v-34h230
l-334 172q-25 12 -32 46zM270 778l-148 94q-23 17 -22 54l17 49q15 32 53 21l137 -86l137 86q38 11 53 -21l17 -49q1 -37 -22 -54l-148 -94q-39 -12 -74 0z" />
    <glyph glyph-name="scaron" unicode="&#x161;" horiz-adv-x="612" 
d="M38 466v238q0 38 38 38h276q57 -2 86 -64v28q3 38 38 36h60q35 2 38 -36v-246q-3 -38 -38 -36h-60q-35 -2 -38 36v34h-230l334 -172q25 -12 32 -46v-238q0 -38 -38 -38h-276q-57 2 -86 64v-28q-3 -38 -38 -36h-60q-35 -2 -38 36v246q3 38 38 36h60q35 2 38 -36v-34h230
l-334 172q-25 12 -32 46zM270 778l-148 94q-23 17 -22 54l17 49q15 32 53 21l137 -86l137 86q38 11 53 -21l17 -49q1 -37 -22 -54l-148 -94q-39 -12 -74 0z" />
    <glyph glyph-name="Ydieresis" unicode="&#x178;" horiz-adv-x="736" 
d="M109 494h-47q-38 0 -38 36v176q0 36 38 36h212q38 0 38 -36v-176q0 -36 -38 -36h-35l29 -56h200l29 56h-35q-38 0 -38 36v176q0 36 38 36h212q38 0 38 -36v-176q0 -36 -38 -36h-47l-83 -162q-12 -24 -36 -30h-72v-54h38q38 0 38 -36v-176q0 -36 -38 -36h-212
q-38 0 -38 36v176q0 36 38 36h38v54h-72q-24 6 -36 30zM112 893q0 46 30.5 77.5t73.5 31.5t73.5 -31.5t30.5 -77.5t-30.5 -77.5t-73.5 -31.5t-73.5 31.5t-30.5 77.5zM418 893q0 46 30.5 77.5t73.5 31.5t73.5 -31.5t30.5 -77.5t-30.5 -77.5t-73.5 -31.5t-73.5 31.5
t-30.5 77.5z" />
    <glyph glyph-name="Zcaron" unicode="&#x17d;" 
 />
    <glyph glyph-name="zcaron" unicode="&#x17e;" 
 />
    <glyph glyph-name="florin" unicode="&#x192;" 
 />
    <glyph glyph-name="circumflex" unicode="&#x2c6;" horiz-adv-x="744" 
d="M335 998q35 12 74 0l148 -94q23 -17 22 -54l-17 -49q-15 -32 -53 -21l-137 86l-137 -86q-38 -11 -53 21l-17 49q-1 37 22 54z" />
    <glyph glyph-name="tilde" unicode="&#x2dc;" horiz-adv-x="750" 
d="M273 994q40 17 78 0l86 -77l88 81q38 11 53 -21l17 -49q1 -37 -22 -54l-100 -90q-33 -15 -74 0l-89 78l-85 -78q-38 -11 -53 21l-17 49q-1 37 22 54z" />
    <glyph glyph-name="endash" unicode="&#x2013;" horiz-adv-x="500" 
d="M430 456q38 0 38 -36v-98q0 -36 -38 -36h-360q-38 0 -38 36v98q0 36 38 36h360z" />
    <glyph glyph-name="emdash" unicode="&#x2014;" horiz-adv-x="490" 
d="M442 456q38 0 38 -36v-98q0 -36 -38 -36h-394q-38 0 -38 36v98q0 36 38 36h394z" />
    <glyph glyph-name="quoteleft" unicode="&#x2018;" horiz-adv-x="368" 
d="M78 492q-38 0 -38 36v172q0 18 16 28l120 94q14 9 36 10h78q38 0 38 -36l-42 -80l42 -52v-136q0 -36 -38 -36h-212z" />
    <glyph glyph-name="quoteright" unicode="&#x2019;" horiz-adv-x="368" 
d="M290 832q38 0 38 -36v-172q0 -18 -16 -28l-120 -94q-14 -9 -36 -10h-78q-38 0 -38 36l42 80l-42 52v136q0 36 38 36h212z" />
    <glyph glyph-name="quotesinglbase" unicode="&#x201a;" horiz-adv-x="368" 
d="M290 248q38 0 38 -36v-160q0 -18 -16 -28l-120 -94q-14 -9 -36 -10h-78q-38 0 -38 36l42 80l-42 52v124q0 36 38 36h212z" />
    <glyph glyph-name="quotedblleft" unicode="&#x201c;" horiz-adv-x="590" 
d="M352 494q-38 0 -38 36v172q0 18 16 28l120 94q14 9 36 10h28q38 0 38 -36l-42 -80l42 -52v-136q0 -36 -38 -36h-162zM78 492q-38 0 -38 36v172q0 18 16 28l120 94q14 9 36 10h28q38 0 38 -36l-42 -80l42 -52v-136q0 -36 -38 -36h-162z" />
    <glyph glyph-name="quotedblright" unicode="&#x201d;" horiz-adv-x="590" 
d="M238 832q38 0 38 -36v-172q0 -18 -16 -28l-120 -94q-14 -9 -36 -10h-28q-38 0 -38 36l42 80l-42 52v136q0 36 38 36h162zM512 834q38 0 38 -36v-172q0 -18 -16 -28l-120 -94q-14 -9 -36 -10h-28q-38 0 -38 36l42 80l-42 52v136q0 36 38 36h162z" />
    <glyph glyph-name="quotedblbase" unicode="&#x201e;" horiz-adv-x="588" 
d="M238 248q38 0 38 -36v-172q0 -18 -16 -28l-120 -94q-14 -9 -36 -10h-28q-38 0 -38 36l42 80l-42 52v136q0 36 38 36h162zM510 248q38 0 38 -36v-172q0 -18 -16 -28l-120 -94q-14 -9 -36 -10h-28q-38 0 -38 36l42 80l-42 52v136q0 36 38 36h162z" />
    <glyph glyph-name="dagger" unicode="&#x2020;" 
 />
    <glyph glyph-name="daggerdbl" unicode="&#x2021;" 
 />
    <glyph glyph-name="bullet" unicode="&#x2022;" 
 />
    <glyph glyph-name="ellipsis" unicode="&#x2026;" 
 />
    <glyph glyph-name="perthousand" unicode="&#x2030;" 
 />
    <glyph glyph-name="guilsinglleft" unicode="&#x2039;" horiz-adv-x="408" 
d="M359 721l-139 -347l139 -347q13 -35 -22 -52l-84 -33q-35 -14 -49 19l-156 393q-10 18 0 42l156 391q14 33 49 19l84 -33q35 -17 22 -52z" />
    <glyph glyph-name="guilsinglright" unicode="&#x203a;" horiz-adv-x="408" 
d="M49 721q-13 35 22 52l84 33q35 14 49 -19l156 -391q10 -24 0 -42l-156 -393q-14 -33 -49 -19l-84 33q-35 17 -22 52l139 347z" />
    <glyph glyph-name="Euro" unicode="&#x20ac;" horiz-adv-x="662" 
d="M122 0q-38 0 -38 36v228h-22q-38 0 -38 36v22q0 36 38 36h22v26h-22q-38 0 -38 36v22q0 36 38 36h22v228q0 36 38 36h276q57 -2 86 -64v28q3 38 38 36h60q35 2 38 -36v-246q-3 -38 -38 -36h-60q-35 -2 -38 36v34h-266v-16h28q38 0 38 -36v-22q0 -36 -38 -36h-28v-26h28
q38 0 38 -36v-22q0 -36 -38 -36h-28v-16h266v34q3 38 38 36h60q35 2 38 -36v-246q0 -36 -38 -36h-460z" />
    <glyph glyph-name="trademark" unicode="&#x2122;" 
 />
    <glyph glyph-name="uni2219" unicode="&#x2219;" 
 />
    </font>
</defs>
</svg>
